<mxfile host="app.diagrams.net" modified="2022-05-14T06:36:09.540Z" agent="5.0 (Macintosh; Intel Mac OS X 10_15_7) AppleWebKit/537.36 (KHTML, like Gecko) Chrome/101.0.4951.54 Safari/537.36" etag="p-fZ8vus7a5QKoInr04H" version="18.0.3" type="github">
  <diagram id="WnsZLcOhK7t10b6jwsUG" name="Page-1">
    <mxGraphModel dx="1113" dy="642" grid="1" gridSize="10" guides="1" tooltips="1" connect="1" arrows="1" fold="1" page="1" pageScale="1" pageWidth="827" pageHeight="1169" math="0" shadow="0">
      <root>
        <mxCell id="0" />
        <mxCell id="1" parent="0" />
        <mxCell id="yhU52ciCdXUKS57Yq0Hs-1" value="" style="rounded=0;whiteSpace=wrap;html=1;fillColor=#ffe6cc;strokeColor=#d79b00;" vertex="1" parent="1">
          <mxGeometry x="20" y="80" width="40" height="160" as="geometry" />
        </mxCell>
        <mxCell id="yhU52ciCdXUKS57Yq0Hs-2" value="" style="rounded=0;whiteSpace=wrap;html=1;" vertex="1" parent="1">
          <mxGeometry x="60" y="160" width="40" height="80" as="geometry" />
        </mxCell>
        <mxCell id="yhU52ciCdXUKS57Yq0Hs-3" value="" style="rounded=0;whiteSpace=wrap;html=1;" vertex="1" parent="1">
          <mxGeometry x="100" y="200" width="40" height="40" as="geometry" />
        </mxCell>
        <mxCell id="yhU52ciCdXUKS57Yq0Hs-4" value="" style="rounded=0;whiteSpace=wrap;html=1;fillColor=#dae8fc;strokeColor=#6c8ebf;" vertex="1" parent="1">
          <mxGeometry x="140" y="120" width="40" height="120" as="geometry" />
        </mxCell>
        <mxCell id="yhU52ciCdXUKS57Yq0Hs-9" value="" style="rounded=0;whiteSpace=wrap;html=1;fillColor=#ffe6cc;strokeColor=#d79b00;fontStyle=1" vertex="1" parent="1">
          <mxGeometry x="320" y="80" width="40" height="160" as="geometry" />
        </mxCell>
        <mxCell id="yhU52ciCdXUKS57Yq0Hs-10" value="" style="rounded=0;whiteSpace=wrap;html=1;fontStyle=1" vertex="1" parent="1">
          <mxGeometry x="360" y="160" width="40" height="80" as="geometry" />
        </mxCell>
        <mxCell id="yhU52ciCdXUKS57Yq0Hs-11" value="" style="rounded=0;whiteSpace=wrap;html=1;fillColor=#dae8fc;strokeColor=#6c8ebf;fontStyle=1" vertex="1" parent="1">
          <mxGeometry x="400" y="200" width="40" height="40" as="geometry" />
        </mxCell>
        <mxCell id="yhU52ciCdXUKS57Yq0Hs-12" value="" style="rounded=0;whiteSpace=wrap;html=1;" vertex="1" parent="1">
          <mxGeometry x="440" y="120" width="40" height="120" as="geometry" />
        </mxCell>
        <mxCell id="yhU52ciCdXUKS57Yq0Hs-23" style="edgeStyle=orthogonalEdgeStyle;rounded=0;orthogonalLoop=1;jettySize=auto;html=1;exitX=0.5;exitY=0;exitDx=0;exitDy=0;fontSize=5;strokeColor=none;startArrow=none;" edge="1" parent="1" source="yhU52ciCdXUKS57Yq0Hs-24">
          <mxGeometry relative="1" as="geometry">
            <mxPoint x="550" y="40" as="targetPoint" />
          </mxGeometry>
        </mxCell>
        <mxCell id="yhU52ciCdXUKS57Yq0Hs-14" value="" style="rounded=0;whiteSpace=wrap;html=1;fontStyle=1;fillColor=#f8cecc;strokeColor=#b85450;dashed=1;" vertex="1" parent="1">
          <mxGeometry x="400" y="120" width="40" height="80" as="geometry" />
        </mxCell>
        <mxCell id="yhU52ciCdXUKS57Yq0Hs-16" value="" style="rounded=0;whiteSpace=wrap;html=1;" vertex="1" parent="1">
          <mxGeometry x="320" y="300" width="40" height="160" as="geometry" />
        </mxCell>
        <mxCell id="yhU52ciCdXUKS57Yq0Hs-17" value="" style="rounded=0;whiteSpace=wrap;html=1;fillColor=#ffe6cc;strokeColor=#d79b00;" vertex="1" parent="1">
          <mxGeometry x="360" y="380" width="40" height="80" as="geometry" />
        </mxCell>
        <mxCell id="yhU52ciCdXUKS57Yq0Hs-18" value="" style="rounded=0;whiteSpace=wrap;html=1;" vertex="1" parent="1">
          <mxGeometry x="400" y="420" width="40" height="40" as="geometry" />
        </mxCell>
        <mxCell id="yhU52ciCdXUKS57Yq0Hs-19" value="" style="rounded=0;whiteSpace=wrap;html=1;fillColor=#dae8fc;strokeColor=#6c8ebf;" vertex="1" parent="1">
          <mxGeometry x="440" y="340" width="40" height="120" as="geometry" />
        </mxCell>
        <mxCell id="yhU52ciCdXUKS57Yq0Hs-20" value="" style="rounded=0;whiteSpace=wrap;html=1;fontStyle=1;fillColor=#f8cecc;strokeColor=#b85450;dashed=1;" vertex="1" parent="1">
          <mxGeometry x="360" y="300" width="40" height="80" as="geometry" />
        </mxCell>
        <mxCell id="yhU52ciCdXUKS57Yq0Hs-21" value="move right" style="endArrow=classic;html=1;rounded=0;fontSize=5;" edge="1" parent="1">
          <mxGeometry x="-0.15" y="15" width="50" height="50" relative="1" as="geometry">
            <mxPoint x="216" y="175" as="sourcePoint" />
            <mxPoint x="296" y="175" as="targetPoint" />
            <Array as="points">
              <mxPoint x="276" y="175" />
            </Array>
            <mxPoint as="offset" />
          </mxGeometry>
        </mxCell>
        <mxCell id="yhU52ciCdXUKS57Yq0Hs-22" value="move left" style="endArrow=classic;html=1;rounded=0;fontSize=5;" edge="1" parent="1">
          <mxGeometry y="20" width="50" height="50" relative="1" as="geometry">
            <mxPoint x="210" y="380" as="sourcePoint" />
            <mxPoint x="290" y="380" as="targetPoint" />
            <Array as="points">
              <mxPoint x="270" y="380" />
            </Array>
            <mxPoint as="offset" />
          </mxGeometry>
        </mxCell>
        <mxCell id="yhU52ciCdXUKS57Yq0Hs-26" style="edgeStyle=orthogonalEdgeStyle;rounded=0;orthogonalLoop=1;jettySize=auto;html=1;entryX=0.5;entryY=0;entryDx=0;entryDy=0;fontSize=14;endArrow=classic;endFill=1;" edge="1" parent="1" source="yhU52ciCdXUKS57Yq0Hs-24" target="yhU52ciCdXUKS57Yq0Hs-14">
          <mxGeometry relative="1" as="geometry" />
        </mxCell>
        <mxCell id="yhU52ciCdXUKS57Yq0Hs-24" value="&lt;h1 style=&quot;font-size: 14px;&quot;&gt;&lt;span style=&quot;font-weight: normal;&quot;&gt;the red area is we should add, we can confirm the water area is valid, because of the left wall is higher than right&lt;/span&gt;&lt;/h1&gt;" style="text;html=1;strokeColor=none;fillColor=none;spacing=5;spacingTop=-20;whiteSpace=wrap;overflow=hidden;rounded=0;dashed=1;fontSize=14;verticalAlign=top;" vertex="1" parent="1">
          <mxGeometry x="490" y="60" width="220" height="80" as="geometry" />
        </mxCell>
        <mxCell id="yhU52ciCdXUKS57Yq0Hs-25" value="" style="edgeStyle=orthogonalEdgeStyle;rounded=0;orthogonalLoop=1;jettySize=auto;html=1;exitX=0.5;exitY=0;exitDx=0;exitDy=0;fontSize=5;strokeColor=none;endArrow=none;" edge="1" parent="1" source="yhU52ciCdXUKS57Yq0Hs-14" target="yhU52ciCdXUKS57Yq0Hs-24">
          <mxGeometry relative="1" as="geometry">
            <mxPoint x="550" y="40" as="targetPoint" />
            <mxPoint x="420" y="120" as="sourcePoint" />
          </mxGeometry>
        </mxCell>
        <mxCell id="yhU52ciCdXUKS57Yq0Hs-28" style="edgeStyle=orthogonalEdgeStyle;rounded=0;orthogonalLoop=1;jettySize=auto;html=1;entryX=0.5;entryY=0;entryDx=0;entryDy=0;fontSize=14;endArrow=classic;endFill=1;" edge="1" parent="1" source="yhU52ciCdXUKS57Yq0Hs-27" target="yhU52ciCdXUKS57Yq0Hs-20">
          <mxGeometry relative="1" as="geometry" />
        </mxCell>
        <mxCell id="yhU52ciCdXUKS57Yq0Hs-27" value="&lt;h1 style=&quot;font-size: 14px;&quot;&gt;&lt;span style=&quot;font-weight: normal;&quot;&gt;the red area is we should add, we can not confirm the water area is valid&lt;/span&gt;&lt;/h1&gt;" style="text;html=1;strokeColor=none;fillColor=none;spacing=5;spacingTop=-20;whiteSpace=wrap;overflow=hidden;rounded=0;dashed=1;fontSize=14;verticalAlign=top;" vertex="1" parent="1">
          <mxGeometry x="500" y="270" width="220" height="80" as="geometry" />
        </mxCell>
      </root>
    </mxGraphModel>
  </diagram>
</mxfile>
